<?xml version="1.0" encoding="utf-8"?>
<!-- Generator: Adobe Illustrator 19.0.0, SVG Export Plug-In . SVG Version: 6.00 Build 0)  -->
<svg version="1.1" id="Calque_7" xmlns="http://www.w3.org/2000/svg" xmlns:xlink="http://www.w3.org/1999/xlink" x="0px" y="0px"
	 viewBox="0 0 283.5 283.5" style="enable-background:new 0 0 283.5 283.5;" xml:space="preserve">
<style type="text/css">
	.st0{fill:none;}
	.st1{fill:#000B4F;}
	.st2{fill:#FFFFFF;}
	.st3{fill:#00187F;}
	.st4{fill:#6B7DCD;}
	.st5{fill:#6B7DCD;stroke:url(#Nouvelle_nuance_de_motif_6);stroke-linejoin:round;stroke-miterlimit:10;}
	.st6{fill:url(#Nouvelle_nuance_de_motif_6);stroke:url(#Nouvelle_nuance_de_motif_6);stroke-linejoin:round;stroke-miterlimit:10;}
	.st7{fill:none;stroke:#000C66;stroke-linejoin:round;stroke-miterlimit:10;}
	.st8{fill:#FFFFFF;stroke:url(#Nouvelle_nuance_de_motif_6);stroke-linejoin:round;stroke-miterlimit:10;}
	.st9{fill:#E30613;}
	.st10{fill:url(#Nouvelle_nuance_de_motif_6);}
</style>
<pattern  y="-14.2" width="36.3" height="36.3" patternUnits="userSpaceOnUse" id="Nouvelle_nuance_de_motif_6" viewBox="0 -36.3 36.3 36.3" style="overflow:visible;">
	<g id="XMLID_16_">
		<polygon id="XMLID_20_" class="st0" points="0,0 36.3,0 36.3,-36.3 0,-36.3 		"/>
		<polygon id="XMLID_19_" class="st1" points="36.3,0 0,0 0,-36.3 36.3,-36.3 		"/>
	</g>
</pattern>
<g id="XMLID_122_">
	<polygon id="XMLID_3_" class="st2" points="19,70.9 141.7,0 264.5,70.9 264.5,212.6 141.7,283.5 19,212.6 	"/>
	<polygon id="XMLID_4_" class="st3" points="25.1,74.4 141.7,7.1 258.3,74.4 258.3,209.1 141.7,276.4 25.1,209.1 	"/>
</g>
<g id="XMLID_7_">
	<path id="XMLID_37_" class="st0" d="M147.1,195.7c10.3,0,16-5.7,14.7-13.6c-0.1-0.3-0.1-0.6-0.2-1l-18.3-5.6l-1.3,0.4l1.2,19.9
		L147.1,195.7z"/>
	<path id="XMLID_43_" class="st0" d="M92.4,186l-0.2,0.7c-1,4.9,3.3,9.3,9.5,9.3c6.2,0,11.9-4.4,12.3-9.3l0.2-2.5l-14.1,4.2
		L92.4,186z"/>
	<polygon id="XMLID_44_" class="st2" points="39.1,206 74.9,206 77.6,195.8 54.9,195.8 62.3,176.6 53.4,173.9 	"/>
	<polygon id="XMLID_45_" class="st2" points="67.5,163.3 58,163.4 55,170.2 66.1,166.9 	"/>
	<path id="XMLID_46_" class="st2" d="M114.2,186.7c-0.4,4.9-6.2,9.3-12.3,9.3c-6.2,0-10.6-4.4-9.5-9.3l0.2-0.7l-10-3.1l-1,3.9
		c-1.3,5.1-0.3,9.6,3.3,13.6c3.7,4.1,9,6.2,15.7,6.2c6.6,0,12.5-2.1,17.5-6.2c4.8-3.9,7.2-8.5,7.3-13.6l0.2-5.8l-10.9,3.3
		L114.2,186.7z"/>
	<polygon id="XMLID_47_" class="st2" points="125.9,163.2 118.6,163.2 125.8,165.4 	"/>
	<path id="XMLID_48_" class="st2" d="M161.8,182c1.3,8-4.4,13.6-14.7,13.6l-3.8,0l-1.2-19.9l-10.2,3.1l0.1,27.1l15.9,0
		c8.7,0,15.6-2.6,20.5-7.6c3.7-3.8,5.2-8.4,4.5-13.8l-11.3-3.5C161.6,181.4,161.7,181.7,161.8,182z"/>
	<path id="XMLID_49_" class="st2" d="M156.5,165.2c-3.5-1.3-7.6-2.1-12.1-2.1l0,0l-12.6,0l0,4.1l8.8,2.7L156.5,165.2z"/>
	<polygon id="XMLID_50_" class="st2" points="178.1,186.2 183,205.9 195.1,205.9 189.3,187.1 185.1,188.4 	"/>
	<path id="XMLID_51_" class="st2" d="M236.2,191.6c-1.9,2.8-5.2,4.3-10.1,4.3c-4.8,0-9.6-1.4-14.1-4.2c-4.1-2.6-6.9-5.5-8.4-8.8
		l-9.6,2.9c2.5,4.7,6.6,9,12.6,12.9c7.8,5.1,16.1,7.7,24.5,7.7c9.4,0,14.8-3.5,17.3-7.7L236.2,191.6z"/>
	<path id="XMLID_52_" class="st2" d="M230.4,168c-5.7-2.8-12.9-5.2-20.3-5.2l0-0.1c-2.3,0-4.3,0.2-6.2,0.6l24.3,7.5L230.4,168z"/>
	<path id="XMLID_53_" class="st1" d="M195,168c2.3-2.3,5.3-3.9,8.9-4.6l-20.3-6.3l-27.1,8.1c2.3,0.8,4.4,1.9,6.2,3
		c5.1,3.3,8.3,7.8,9.7,13.8c0.2,0.8,0.3,1.7,0.4,2.5l5.2,1.6l-5.8-23.1l9.6,0l7.4,24.1l4.7-1.4c-0.6-1.2-1.2-2.4-1.6-3.7
		C190.5,176.3,191.4,171.7,195,168z"/>
	<polygon id="XMLID_54_" class="st1" points="97.1,163.3 92.4,186 100.3,188.4 114.4,184.1 116.3,163.2 118.6,163.2 98.8,157.1 
		66.1,166.9 62.3,176.6 82.4,182.9 87.6,163.3 	"/>
	<polygon id="XMLID_55_" class="st1" points="125.8,165.4 125.3,180.8 131.8,178.9 131.8,167.3 	"/>
	<path id="XMLID_56_" class="st1" d="M213.7,170c-4.2,0-7.3,1.1-9.3,3.4c-2.1,2.4-2.5,5.2-1.1,8.7c0.1,0.3,0.2,0.5,0.3,0.8l32.2-9.7
		l-7.6-2.3l-1.9,2.5C222,171.1,217.8,170,213.7,170z"/>
	<polygon id="XMLID_57_" class="st1" points="48.2,172.3 53.4,173.9 55,170.2 	"/>
	<path id="XMLID_58_" class="st1" d="M161.6,181.1c-1.6-6.7-8.1-10.9-16.6-10.9l-3.2,0l0.3,5.6l1.3-0.4L161.6,181.1z"/>
	<polygon id="XMLID_59_" class="st4" points="55,170.2 53.4,173.9 62.3,176.6 66.1,166.9 	"/>
	<polygon id="XMLID_64_" class="st4" points="118.6,163.2 116.3,163.2 114.4,184.1 125.3,180.8 125.8,165.4 	"/>
	<polygon id="XMLID_65_" class="st4" points="97.1,163.3 87.6,163.3 82.4,182.9 92.4,186 	"/>
	<path id="XMLID_70_" class="st4" d="M162.7,168.3c-1.8-1.2-3.9-2.2-6.2-3l-15.9,4.8l-8.8-2.7l0,11.6l10.2-3.1l-0.3-5.6l3.2,0
		c8.5,0,15,4.2,16.6,10.9l11.3,3.5c-0.1-0.8-0.2-1.6-0.4-2.5C171.1,176.1,167.8,171.6,162.7,168.3z"/>
	<polygon id="XMLID_79_" class="st4" points="172.3,163.1 178.1,186.2 185.1,188.4 189.3,187.1 181.9,163.1 	"/>
	<path id="XMLID_82_" class="st4" d="M203.2,182.1c-1.4-3.5-0.9-6.3,1.1-8.7c2-2.3,5.1-3.4,9.3-3.4c4.2,0,8.3,1.1,12.6,3.4l1.9-2.5
		l-24.3-7.5c-3.6,0.8-6.6,2.3-8.9,4.6c-3.6,3.7-4.6,8.3-2.7,14.1c0.4,1.2,0.9,2.5,1.6,3.7l9.6-2.9
		C203.5,182.6,203.3,182.3,203.2,182.1z"/>
</g>
<g id="XMLID_1_">
	<g id="XMLID_22_">
		<polygon id="XMLID_8_" class="st5" points="106,107.8 68.7,91.7 107.4,84.5 144.7,100.6 		"/>
		<polyline id="XMLID_27_" class="st6" points="144.6,100.8 139.3,150.8 100.4,160 105.9,107.8 106,107.8 144.7,100.6 		"/>
		<line id="XMLID_29_" class="st7" x1="68.7" y1="91.7" x2="106" y2="107.8"/>
		<polyline id="XMLID_23_" class="st8" points="106,107.8 68.7,91.7 63.4,141.7 100.4,160 105.9,107.8 		"/>
	</g>
	
		<ellipse id="XMLID_24_" transform="matrix(0.9944 0.1057 -0.1057 0.9944 14.8285 -6.611)" class="st9" cx="69.8" cy="136.6" rx="2.4" ry="3.9"/>
	
		<ellipse id="XMLID_26_" transform="matrix(0.9944 0.1057 -0.1057 0.9944 12.4947 -9.8827)" class="st9" cx="99.5" cy="113" rx="2.4" ry="3.9"/>
	
		<ellipse id="XMLID_33_" transform="matrix(-0.1057 0.9944 -0.9944 -0.1057 213.5475 0.2373)" class="st9" cx="106.7" cy="96.1" rx="2.4" ry="3.9"/>
	
		<ellipse id="XMLID_28_" transform="matrix(0.9944 0.1057 -0.1057 0.9944 13.7152 -8.1601)" class="st9" cx="83.9" cy="125.3" rx="2.4" ry="3.9"/>
	
		<ellipse id="XMLID_32_" transform="matrix(-0.9944 -0.1057 0.1057 -0.9944 252.5424 302.0516)" class="st9" cx="134.3" cy="144.3" rx="2.3" ry="4"/>
	
		<ellipse id="XMLID_31_" transform="matrix(-0.9944 -0.1057 0.1057 -0.9944 209.3268 239.7806)" class="st9" cx="111" cy="114.3" rx="2.3" ry="4"/>
</g>
<g id="XMLID_17_">
	<polygon id="XMLID_41_" class="st5" points="179.7,108.5 139.9,100.4 176.3,85.4 216.1,93.5 	"/>
	<polyline id="XMLID_40_" class="st6" points="216.1,93.6 221.2,143.7 185,160.8 179.7,108.5 179.7,108.5 216.1,93.5 	"/>
	<polyline id="XMLID_38_" class="st8" points="179.7,108.5 139.9,100.4 145,150.5 185,160.8 179.7,108.5 	"/>
	
		<ellipse id="XMLID_36_" transform="matrix(0.9948 -0.1014 0.1014 0.9948 -13.8462 15.9867)" class="st9" cx="150.3" cy="144.1" rx="2.4" ry="3.9"/>
	
		<ellipse id="XMLID_35_" transform="matrix(0.9948 -0.1014 0.1014 0.9948 -10.7523 18.2901)" class="st9" cx="174.5" cy="114.9" rx="2.4" ry="3.9"/>
	
		<ellipse id="XMLID_34_" transform="matrix(0.1014 0.9948 -0.9948 0.1014 256.4007 -89.9909)" class="st9" cx="178" cy="96.9" rx="2.4" ry="3.9"/>
	
		<ellipse id="XMLID_30_" transform="matrix(0.9948 -0.1014 0.1014 0.9948 -12.3737 17.0749)" class="st9" cx="161.7" cy="130.2" rx="2.4" ry="3.9"/>
	
		<ellipse id="XMLID_25_" transform="matrix(-0.9948 0.1014 -0.1014 -0.9948 442.8448 254.3002)" class="st9" cx="215" cy="138.4" rx="2.3" ry="4"/>
	
		<ellipse id="XMLID_18_" transform="matrix(-0.9948 0.1014 -0.1014 -0.9948 382.6302 208.2488)" class="st9" cx="186" cy="113.9" rx="2.3" ry="4"/>
</g>
<path id="XMLID_11_" class="st10" d="M178.4,96.7l-36.3-57.4c0,0,0,0,0,0c0,0,0,0-0.1-0.1c0,0,0-0.1-0.1-0.1c0,0,0,0,0,0
	c0,0,0,0-0.1,0c0,0-0.1,0-0.1,0c0,0-0.1,0-0.1,0c0,0-0.1,0-0.1,0c0,0-0.1,0-0.1,0c0,0,0,0-0.1,0c0,0,0,0,0,0c0,0,0,0-0.1,0.1
	c0,0-0.1,0-0.1,0.1c0,0,0,0,0,0l-35,56.7c-0.1,0.2-0.1,0.5,0.2,0.7c0.1,0.1,0.2,0.1,0.3,0.1c0.2,0,0.3-0.1,0.4-0.2l34.6-56
	l35.9,56.8c0.1,0.2,0.3,0.2,0.4,0.2c0.1,0,0.2,0,0.3-0.1C178.5,97.2,178.6,96.9,178.4,96.7z"/>
<path id="XMLID_130_" class="st4" d="M141.7,40.4l29.7,47l0.9-0.4l-30.2-47.8c0,0,0,0,0,0c0,0,0,0-0.1-0.1c0,0,0-0.1-0.1-0.1
	c0,0,0,0,0,0c0,0,0,0-0.1,0c0,0-0.1,0-0.1,0c0,0-0.1,0-0.1,0c0,0-0.1,0-0.1,0c0,0-0.1,0-0.1,0c0,0,0,0-0.1,0c0,0,0,0,0,0
	c0,0,0,0-0.1,0.1c0,0-0.1,0-0.1,0.1c0,0,0,0,0,0L112,86.5l0.9,0.4L141.7,40.4z"/>
</svg>
